<mxfile host="65bd71144e">
    <diagram id="-nho_FcTkLTcVvukGy0u" name="Page-1">
        <mxGraphModel dx="856" dy="427" grid="1" gridSize="10" guides="1" tooltips="1" connect="1" arrows="1" fold="1" page="1" pageScale="1" pageWidth="850" pageHeight="1100" math="0" shadow="0">
            <root>
                <mxCell id="0"/>
                <mxCell id="1" parent="0"/>
                <mxCell id="2" value="Diet and Exercise Journal" style="rounded=0;whiteSpace=wrap;html=1;" vertex="1" parent="1">
                    <mxGeometry x="40" y="40" width="720" height="60" as="geometry"/>
                </mxCell>
                <mxCell id="3" value="" style="rounded=0;whiteSpace=wrap;html=1;" vertex="1" parent="1">
                    <mxGeometry x="40" y="150" width="240" height="240" as="geometry"/>
                </mxCell>
                <mxCell id="4" value="" style="rounded=0;whiteSpace=wrap;html=1;" vertex="1" parent="1">
                    <mxGeometry x="320" y="150" width="210" height="530" as="geometry"/>
                </mxCell>
                <mxCell id="5" value="" style="rounded=0;whiteSpace=wrap;html=1;" vertex="1" parent="1">
                    <mxGeometry x="550" y="150" width="210" height="530" as="geometry"/>
                </mxCell>
                <mxCell id="6" value="" style="rounded=0;whiteSpace=wrap;html=1;" vertex="1" parent="1">
                    <mxGeometry x="40" y="426" width="240" height="250" as="geometry"/>
                </mxCell>
                <mxCell id="9" value="Today's Date" style="rounded=1;whiteSpace=wrap;html=1;" vertex="1" parent="1">
                    <mxGeometry x="650" y="70" width="110" height="30" as="geometry"/>
                </mxCell>
                <mxCell id="10" value="Exercise&amp;nbsp; |&amp;nbsp; &amp;nbsp;Weight&amp;nbsp; |&amp;nbsp; &amp;nbsp;Sets&amp;nbsp; &amp;nbsp;|&amp;nbsp; &amp;nbsp; Reps" style="rounded=0;whiteSpace=wrap;html=1;" vertex="1" parent="1">
                    <mxGeometry x="40" y="150" width="240" height="30" as="geometry"/>
                </mxCell>
                <mxCell id="11" value="Food/Meal&amp;nbsp; |&amp;nbsp; &amp;nbsp;Calories&amp;nbsp; &amp;nbsp;|&amp;nbsp; &amp;nbsp; Meal Cat." style="rounded=0;whiteSpace=wrap;html=1;" vertex="1" parent="1">
                    <mxGeometry x="40" y="426" width="240" height="34" as="geometry"/>
                </mxCell>
                <mxCell id="12" value="&lt;span style=&quot;text-align: left;&quot;&gt;List of Open input Fields.&amp;nbsp; Search for Exercise/Difficulty from input field.&amp;nbsp; &amp;nbsp; &amp;nbsp;Add weight&amp;nbsp; Sets and Reps display from selected Exercise.&amp;nbsp; &amp;nbsp;Only display todays items.&amp;nbsp; &amp;nbsp;&amp;nbsp;&lt;/span&gt;" style="rounded=1;whiteSpace=wrap;html=1;" vertex="1" parent="1">
                    <mxGeometry x="50" y="200" width="220" height="110" as="geometry"/>
                </mxCell>
                <mxCell id="13" value="&lt;span style=&quot;text-align: left;&quot;&gt;List of open input fields.&amp;nbsp; &amp;nbsp;Search for meal/food from input field.&amp;nbsp; &amp;nbsp;Calories is displayed based on selected item.&amp;nbsp; &amp;nbsp;Add meal category to the item.&amp;nbsp; &amp;nbsp;&lt;/span&gt;&lt;br style=&quot;text-align: left;&quot;&gt;&lt;span style=&quot;text-align: left;&quot;&gt;submit the item to a database.&amp;nbsp; &amp;nbsp;Only display todays items.&lt;/span&gt;" style="rounded=1;whiteSpace=wrap;html=1;" vertex="1" parent="1">
                    <mxGeometry x="50" y="470" width="220" height="100" as="geometry"/>
                </mxCell>
                <mxCell id="14" value="Link to a pop up graph of prior diet data" style="rounded=1;whiteSpace=wrap;html=1;" vertex="1" parent="1">
                    <mxGeometry x="50" y="600" width="220" height="60" as="geometry"/>
                </mxCell>
                <mxCell id="15" value="Link to pop up graph of prior exercise data" style="rounded=1;whiteSpace=wrap;html=1;" vertex="1" parent="1">
                    <mxGeometry x="50" y="330" width="220" height="50" as="geometry"/>
                </mxCell>
                <mxCell id="18" value="Select New Meals" style="rounded=1;whiteSpace=wrap;html=1;" vertex="1" parent="1">
                    <mxGeometry x="330" y="160" width="190" height="30" as="geometry"/>
                </mxCell>
                <mxCell id="19" value="Select New Exercises" style="rounded=1;whiteSpace=wrap;html=1;" vertex="1" parent="1">
                    <mxGeometry x="560" y="160" width="190" height="30" as="geometry"/>
                </mxCell>
                <mxCell id="20" value="Meal Card&lt;br&gt;Name&lt;br&gt;Description&lt;br&gt;Calories&lt;br&gt;Meal Cat.&lt;br&gt;URL" style="rounded=1;whiteSpace=wrap;html=1;" vertex="1" parent="1">
                    <mxGeometry x="330" y="200" width="190" height="120" as="geometry"/>
                </mxCell>
                <mxCell id="21" value="Meal Card" style="rounded=1;whiteSpace=wrap;html=1;" vertex="1" parent="1">
                    <mxGeometry x="330" y="330" width="190" height="120" as="geometry"/>
                </mxCell>
                <mxCell id="22" value="Meal Card" style="rounded=1;whiteSpace=wrap;html=1;" vertex="1" parent="1">
                    <mxGeometry x="330" y="460" width="190" height="120" as="geometry"/>
                </mxCell>
                <mxCell id="23" value="Exercise Card&lt;br&gt;Name&lt;br&gt;Sets&lt;br&gt;Reps&lt;br&gt;URL" style="rounded=1;whiteSpace=wrap;html=1;" vertex="1" parent="1">
                    <mxGeometry x="560" y="200" width="190" height="120" as="geometry"/>
                </mxCell>
                <mxCell id="24" value="Exercise Card" style="rounded=1;whiteSpace=wrap;html=1;" vertex="1" parent="1">
                    <mxGeometry x="560" y="330" width="190" height="120" as="geometry"/>
                </mxCell>
                <mxCell id="25" value="Exercise Card" style="rounded=1;whiteSpace=wrap;html=1;" vertex="1" parent="1">
                    <mxGeometry x="560" y="460" width="190" height="120" as="geometry"/>
                </mxCell>
                <mxCell id="28" value="Submit" style="rounded=1;whiteSpace=wrap;html=1;" vertex="1" parent="1">
                    <mxGeometry x="100" y="310" width="90" height="20" as="geometry"/>
                </mxCell>
                <mxCell id="29" value="Submit" style="rounded=1;whiteSpace=wrap;html=1;" vertex="1" parent="1">
                    <mxGeometry x="100" y="570" width="90" height="20" as="geometry"/>
                </mxCell>
                <mxCell id="30" value="Meal Parameters" style="rounded=0;whiteSpace=wrap;html=1;" vertex="1" parent="1">
                    <mxGeometry x="40" y="700" width="720" height="60" as="geometry"/>
                </mxCell>
                <mxCell id="31" value="Exercise Parameters" style="rounded=0;whiteSpace=wrap;html=1;" vertex="1" parent="1">
                    <mxGeometry x="40" y="770" width="720" height="60" as="geometry"/>
                </mxCell>
            </root>
        </mxGraphModel>
    </diagram>
</mxfile>